ply
format ascii 1.0
comment VCGLIB generated
element vertex 62
property float x
property float y
property float z
element face 120
property list uchar int vertex_indices
end_header
0 -0.5 -0 
0.25 -0.433013 -0 
0.216506 -0.433013 -0.125 
0.125 -0.433013 -0.216506 
0 -0.433013 -0.25 
-0.125 -0.433013 -0.216506 
-0.216506 -0.433013 -0.125 
-0.25 -0.433013 -0 
-0.216506 -0.433013 0.125 
-0.125 -0.433013 0.216506 
0 -0.433013 0.25 
0.125 -0.433013 0.216506 
0.216506 -0.433013 0.125 
0.433013 -0.25 -0 
0.375 -0.25 -0.216506 
0.216506 -0.25 -0.375 
0 -0.25 -0.433013 
-0.216506 -0.25 -0.375 
-0.375 -0.25 -0.216506 
-0.433013 -0.25 -0 
-0.375 -0.25 0.216506 
-0.216506 -0.25 0.375 
0 -0.25 0.433013 
0.216506 -0.25 0.375 
0.375 -0.25 0.216506 
0.5 2.55171e-12 -0 
0.433013 2.55171e-12 -0.25 
0.25 2.55171e-12 -0.433013 
0 2.55171e-12 -0.5 
-0.25 2.55171e-12 -0.433013 
-0.433013 2.55171e-12 -0.25 
-0.5 2.55171e-12 -0 
-0.433013 2.55171e-12 0.25 
-0.25 2.55171e-12 0.433013 
0 2.55171e-12 0.5 
0.25 2.55171e-12 0.433013 
0.433013 2.55171e-12 0.25 
0.433013 0.25 -0 
0.375 0.25 -0.216506 
0.216506 0.25 -0.375 
0 0.25 -0.433013 
-0.216506 0.25 -0.375 
-0.375 0.25 -0.216506 
-0.433013 0.25 -0 
-0.375 0.25 0.216506 
-0.216506 0.25 0.375 
0 0.25 0.433013 
0.216506 0.25 0.375 
0.375 0.25 0.216506 
0.25 0.433013 -0 
0.216506 0.433013 -0.125 
0.125 0.433013 -0.216506 
0 0.433013 -0.25 
-0.125 0.433013 -0.216506 
-0.216506 0.433013 -0.125 
-0.25 0.433013 -0 
-0.216506 0.433013 0.125 
-0.125 0.433013 0.216506 
0 0.433013 0.25 
0.125 0.433013 0.216506 
0.216506 0.433013 0.125 
5.10341e-12 0.5 -0 
3 2 1 0 
3 3 2 0 
3 4 3 0 
3 5 4 0 
3 6 5 0 
3 7 6 0 
3 8 7 0 
3 9 8 0 
3 10 9 0 
3 11 10 0 
3 12 11 0 
3 1 12 0 
3 2 13 1 
3 14 13 2 
3 3 14 2 
3 15 14 3 
3 16 15 3 
3 4 16 3 
3 16 4 5 
3 17 16 5 
3 17 5 6 
3 18 17 6 
3 19 6 7 
3 19 18 6 
3 19 7 8 
3 20 19 8 
3 20 8 9 
3 21 20 9 
3 22 9 10 
3 22 21 9 
3 11 22 10 
3 23 22 11 
3 12 23 11 
3 24 23 12 
3 13 24 12 
3 1 13 12 
3 14 25 13 
3 26 25 14 
3 27 26 14 
3 15 27 14 
3 28 27 15 
3 16 28 15 
3 28 16 17 
3 29 28 17 
3 30 17 18 
3 30 29 17 
3 31 18 19 
3 31 30 18 
3 31 19 20 
3 32 31 20 
3 33 20 21 
3 33 32 20 
3 34 21 22 
3 34 33 21 
3 23 34 22 
3 35 34 23 
3 36 35 23 
3 24 36 23 
3 25 36 24 
3 13 25 24 
3 38 37 25 
3 26 38 25 
3 27 38 26 
3 39 38 27 
3 28 39 27 
3 40 39 28 
3 41 28 29 
3 41 40 28 
3 42 29 30 
3 42 41 29 
3 42 30 31 
3 43 42 31 
3 44 31 32 
3 44 43 31 
3 44 32 33 
3 45 44 33 
3 45 33 34 
3 46 45 34 
3 47 46 34 
3 35 47 34 
3 48 47 35 
3 36 48 35 
3 25 48 36 
3 37 48 25 
3 38 49 37 
3 50 49 38 
3 39 50 38 
3 51 50 39 
3 52 51 39 
3 40 52 39 
3 52 40 41 
3 53 52 41 
3 54 41 42 
3 54 53 41 
3 55 42 43 
3 55 54 42 
3 55 43 44 
3 56 55 44 
3 57 44 45 
3 57 56 44 
3 57 45 46 
3 58 57 46 
3 59 58 46 
3 47 59 46 
3 48 59 47 
3 60 59 48 
3 49 60 48 
3 37 49 48 
3 50 61 49 
3 51 61 50 
3 52 61 51 
3 61 52 53 
3 61 53 54 
3 61 54 55 
3 61 55 56 
3 61 56 57 
3 61 57 58 
3 59 61 58 
3 60 61 59 
3 49 61 60 
